<?xml version="1.0" standalone="no"?>
<!DOCTYPE svg PUBLIC "-//W3C//DTD SVG 20010904//EN"
 "http://www.w3.org/TR/2001/REC-SVG-20010904/DTD/svg10.dtd">
<svg version="1.0" xmlns="http://www.w3.org/2000/svg"
 width="700.000000pt" height="700.000000pt" viewBox="0 0 700.000000 700.000000"
 preserveAspectRatio="xMidYMid meet">
<metadata>
Created by potrace 1.14, written by Peter Selinger 2001-2017
</metadata>
<g transform="translate(0.000000,700.000000) scale(0.100000,-0.100000)"
fill="#000000" stroke="none">
<path d="M0 3500 l0 -3500 3500 0 3500 0 0 3500 0 3500 -3500 0 -3500 0 0
-3500z m3840 3226 c772 -87 1461 -423 1990 -972 482 -500 779 -1110 886 -1824
21 -144 30 -572 15 -737 -141 -1505 -1297 -2715 -2791 -2922 -743 -104 -1528
66 -2162 466 -858 542 -1414 1446 -1509 2455 -17 190 -7 596 20 773 109 706
416 1318 911 1816 180 181 307 285 515 424 424 283 908 459 1430 520 152 18
541 18 695 1z"/>
<path d="M3174 6425 c-798 -92 -1523 -501 -2007 -1133 -58 -77 -69 -96 -60
-111 12 -19 1081 -1462 1093 -1474 4 -5 213 214 465 485 252 271 469 504 482
518 l23 25 0 -1073 0 -1072 -150 0 -150 0 -2 687 -3 687 -339 -365 c-186 -200
-342 -365 -345 -366 -4 -1 -1050 1403 -1245 1672 -13 18 -17 14 -56 -64 -165
-329 -262 -654 -305 -1017 -20 -169 -19 -490 1 -664 89 -777 475 -1479 1082
-1968 750 -603 1740 -800 2667 -532 267 78 558 213 790 369 83 55 158 107 168
114 16 13 17 88 15 1379 l-3 1365 -318 -408 c-175 -225 -321 -409 -325 -409
-4 1 -155 204 -337 453 l-330 452 -3 -693 -2 -692 -150 0 -150 0 0 1152 c0
726 4 1148 9 1143 6 -6 224 -302 486 -660 261 -357 479 -651 484 -653 4 -1
217 266 472 594 l464 597 5 -1669 5 -1668 84 94 c188 213 319 407 445 660 159
319 250 627 291 980 17 155 20 469 5 621 -54 540 -257 1060 -584 1492 -490
648 -1217 1061 -2026 1152 -162 18 -489 18 -646 0z m-1674 -3270 l0 -565 -150
0 -150 0 0 565 0 565 150 0 150 0 0 -565z"/>
</g>
</svg>
